<svg id="Layer_1" data-name="Layer 1" xmlns="http://www.w3.org/2000/svg" viewBox="0 0 1041.44 1138.91"><title>logo-black-mobile</title><path d="M740.63,712.69c-7.07-39.55-20.39-77-37.93-113.06-1.28-2.62-2.42-5.3-3.59-7.86,5.29-4,10.16-7.47,14.86-11.19,14.25-11.3,23.73-25.24,25.55-44,2.5-25.77-18.1-47.16-43.66-43.82-7.17.94-14,4.82-20.82,7.68-1,.41-1.19,2.62-1.76,4,1.34.2,2.74.75,4,.52,2.93-.53,5.77-1.55,8.7-2.15a18.44,18.44,0,0,1,22.22,17.7A25.74,25.74,0,0,1,676.42,546a237.43,237.43,0,0,1-31.2-10.12c-18-6.95-35.47-15.17-53.61-21.62C568.56,506,547.07,509.38,528.3,526c-7.09,6.29-7.22,6.17-15,.36-12.58-9.39-26.23-15.59-42.39-15-12.57.46-23.53,5.32-34.06,11.64-20.54,12.33-41.05,24.7-61.67,36.89a39.47,39.47,0,0,1-10.13,4c-15.2,3.93-30.53-3.6-35.07-17-4.46-13.16,4.05-24.64,17.85-24,2.65.13,5.29.67,7.95.76a18.72,18.72,0,0,0,4.1-.76l.38-1.9c-3.58-1.84-7-4.38-10.77-5.34a54.89,54.89,0,0,0-14.34-1.32c-23.59.44-39.46,21-34.25,44.12,3.87,17.16,14.17,29.81,28.16,39.82,3.9,2.79,7.89,5.47,12.06,8.36-1.85,4.55-3.43,8.92-5.37,13.11-18.58,40.08-32.74,81.41-36,125.87-2.23,30.81-.77,61.32,9.48,90.72,19.19,55,54.07,95.67,109.3,117.16,4.49,1.75,9.25,2.83,13.88,4.22l.66-1.23c-4.45-4.66-9-9.27-13.35-14q-10-10.81-19.83-21.79c-1.71-1.9-3.1-4,0-6.57,4.37,3.09,8.75,6.1,13,9.23,21.67,15.79,43.23,31.72,65,47.38a150.88,150.88,0,0,1,37.37,38.51c4.45,6.61,6.27,6.39,10.68-.09a114.84,114.84,0,0,1,30-29.77c26-18,52.21-35.72,78.38-53.49,3.11-2.11,6.51-3.8,9.78-5.68.56,2.28.49,4.17-.46,5.36A172.46,172.46,0,0,1,631.41,940c-5.63,5.66-11.79,10.79-17.65,16.23a35.28,35.28,0,0,0-3.22,4l.87,1.87c4.68-1.07,9.51-1.72,14-3.28C676,941.32,709.69,906,730,857.47,749.57,810.55,749.42,761.85,740.63,712.69Zm-137.45-52.5c-7.41,9.37-18.2,12.56-29.45,11.81-8.08-.54-16.31-3-23.88-6-7.94-3.2-12.12-10.11-12.35-19-.05-2-.09-4-.1-6,0-9.15-.81-10.77-10.13-11.3-6.28-.35-12.71,1.39-19,2.5-.94.16-2.12,1.95-2.26,3.1-.48,4-.58,8-.76,12a17.89,17.89,0,0,1-8.5,15c-20,13-48.29,8.29-62.92-10.54a77.82,77.82,0,0,1-14.87-30.57c6-1.22,11.79-2.5,17.6-3.53a224.26,224.26,0,0,0,80.87-31.15c3-1.91,5.26-1.65,8.09,0,14.59,8.38,29.47,16.31,46.24,19.27,13.4,2.36,27,3.81,40.47,5.66l7.34,1C617,629.68,614.1,646.37,603.18,660.19Z"/><path d="M316.21,471.42c2,4.62,5,8.85,7.58,13.45,3.81-2.09,6.61-3.91,9.63-5.24,7.35-3.22,9-8.62,8.59-16.41-1.11-19.61-1.55-39.27-1.7-58.91-.25-32.1,10.31-59.59,35.13-81,7.78-6.73,14.58-14.58,22-22.07-2.88-3.51-5.63-6.43-7.85-9.72-2-3-6.32-5.07-4-10.75,25.94,24.06,58.26,29.9,91.19,32.32,33.73,2.48,64.75-7.6,93.13-23.42-4.51-10.14-9.47-18.58-12.09-27.7C551.2,238.77,560,217.15,588.3,213c17.9-2.63,34.6,2.38,51.12,8.34,1.14.41,2.26.9,3.38,1.35l-1.52,1.68c-1.11-.22-2.23-.4-3.33-.66-12.16-2.87-24.27-5.66-37-4.3-17.38,1.86-31,13.57-33.28,30.07a38.58,38.58,0,0,0,8.84,30.35c7.8,9.47,16.13,18.77,25.53,26.58,26.8,22.28,56,40,91.67,44.3,6.49.78,12.91,2.19,19.88,3.39-4.88,6.91-11.59,9.35-18.34,11.74-11.31,4-10.86,4.16-9.75,16,2,21.69,4.17,43.42,4.61,65.17.19,9.45,2.54,14.21,11.52,17.29,11.42,3.91,12.49,3.91,15.41-8.12,0-.16,0-.33.08-.49,8.33-34.42,12.52-69.39,13.75-104.73.45-13,.32-26,.1-39-.32-18.58-7.57-35.22-14.89-51.87-16.65-37.85-42.92-66-81.14-82.85-16.27-7.16-32.07-15.39-48-23.23a63.44,63.44,0,0,1-6.4-4.12l.55-1.6L610,152.81l.51-1.23c-3.28-2.41-6.4-5.06-9.85-7.19-20-12.39-42.28-17.23-65.45-18.95-23.71-1.76-47.28-.24-70.73,3.1-19.15,2.73-38,6.93-55.34,15.86-18.65,9.59-33.27,23.38-38.26,44.31-2.78,11.67-2.78,24-3.59,36.12-.25,3.66-1.42,5.34-4.72,7-11.54,5.83-23.38,11.34-34,18.54-15.79,10.67-26.83,25.53-30.71,44.52-1.85,9.06-2.28,18.49-2.52,27.77A555.16,555.16,0,0,0,300,407.89C302.86,429.76,307.28,451.17,316.21,471.42Z"/></svg>