<svg id="Layer_1" data-name="Layer 1" xmlns="http://www.w3.org/2000/svg" viewBox="0 0 1041.44 1138.91"><defs><style>.cls-1{fill:#fff;}</style></defs><title>logo-white</title><path class="cls-1" d="M741.73,808.37c-7.07-39.55-20.39-77-37.93-113.06-1.28-2.62-2.42-5.3-3.59-7.86,5.29-4,10.16-7.47,14.86-11.19,14.25-11.3,23.73-25.24,25.55-44,2.5-25.77-18.1-47.16-43.66-43.82-7.17.94-14,4.82-20.82,7.68-1,.41-1.19,2.62-1.76,4,1.34.2,2.74.75,4,.52,2.93-.53,5.77-1.55,8.7-2.15a18.44,18.44,0,0,1,22.22,17.7,25.74,25.74,0,0,1-31.78,25.43,237.43,237.43,0,0,1-31.2-10.12c-18-6.95-35.47-15.17-53.61-21.62-23.05-8.21-44.54-4.84-63.31,11.82-7.09,6.29-7.22,6.17-15,.36-12.58-9.39-26.23-15.59-42.39-15-12.57.46-23.53,5.32-34.06,11.64-20.54,12.33-41.05,24.7-61.67,36.89a39.47,39.47,0,0,1-10.13,4c-15.2,3.93-30.53-3.6-35.07-17-4.46-13.16,4.05-24.64,17.85-24,2.65.13,5.29.67,7.95.76a18.72,18.72,0,0,0,4.1-.76l.38-1.9c-3.58-1.84-7-4.38-10.77-5.34a54.89,54.89,0,0,0-14.34-1.32c-23.59.44-39.46,21-34.25,44.12,3.87,17.16,14.17,29.81,28.16,39.82,3.9,2.79,7.89,5.47,12.06,8.36-1.85,4.55-3.43,8.92-5.37,13.11-18.58,40.08-32.74,81.41-36,125.87-2.23,30.81-.77,61.32,9.48,90.72,19.19,55,54.07,95.67,109.3,117.16,4.49,1.75,9.25,2.83,13.88,4.22l.66-1.23c-4.45-4.66-9-9.27-13.35-14q-10-10.81-19.83-21.79c-1.71-1.9-3.1-4,0-6.57,4.37,3.09,8.75,6.1,13,9.23,21.67,15.79,43.23,31.72,65,47.38A150.88,150.88,0,0,1,516.44,1105c4.45,6.61,6.27,6.39,10.68-.09a114.84,114.84,0,0,1,30-29.77c26-18,52.21-35.72,78.38-53.49,3.11-2.11,6.51-3.8,9.78-5.68.56,2.28.49,4.17-.46,5.36a172.46,172.46,0,0,1-12.29,14.35c-5.63,5.66-11.79,10.79-17.65,16.23a35.28,35.28,0,0,0-3.22,4l.87,1.87c4.68-1.07,9.51-1.72,14-3.28,50.61-17.47,84.25-52.8,104.53-101.32C750.67,906.24,750.52,857.53,741.73,808.37Zm-137.45-52.5c-7.41,9.37-18.2,12.56-29.45,11.81-8.08-.54-16.31-3-23.88-6-7.94-3.2-12.12-10.11-12.35-19-.05-2-.09-4-.1-6,0-9.15-.81-10.77-10.13-11.3-6.28-.35-12.71,1.39-19,2.5-.94.16-2.12,1.95-2.26,3.1-.48,4-.58,8-.76,12a17.89,17.89,0,0,1-8.5,15c-20,13-48.29,8.29-62.92-10.54A77.82,77.82,0,0,1,420,716.82c6-1.22,11.79-2.5,17.6-3.53a224.26,224.26,0,0,0,80.87-31.15c3-1.91,5.26-1.65,8.09,0,14.59,8.38,29.47,16.31,46.24,19.27,13.4,2.36,27,3.81,40.47,5.66l7.34,1C618.1,725.37,615.2,742.06,604.28,755.87Z"/><path class="cls-1" d="M317.31,567.11c2,4.62,5,8.85,7.58,13.45,3.81-2.09,6.61-3.91,9.63-5.24,7.35-3.22,9-8.62,8.59-16.41-1.11-19.61-1.55-39.27-1.7-58.91-.25-32.1,10.31-59.59,35.13-81,7.78-6.73,14.58-14.58,22-22.07-2.88-3.51-5.63-6.43-7.85-9.72-2-3-6.32-5.07-4-10.75,25.94,24.06,58.26,29.9,91.19,32.32,33.73,2.48,64.75-7.6,93.13-23.42-4.51-10.14-9.47-18.58-12.09-27.7-6.64-23.17,2.21-44.79,30.45-48.93,17.9-2.63,34.6,2.38,51.12,8.34,1.14.41,2.26.9,3.38,1.35l-1.52,1.68c-1.11-.22-2.23-.4-3.33-.66-12.16-2.87-24.27-5.66-37-4.3-17.38,1.86-31,13.57-33.28,30.07a38.58,38.58,0,0,0,8.84,30.35c7.8,9.47,16.13,18.77,25.53,26.58,26.8,22.28,56,40,91.67,44.3,6.49.78,12.91,2.19,19.88,3.39-4.88,6.91-11.59,9.35-18.34,11.74-11.31,4-10.86,4.16-9.75,16,2,21.69,4.17,43.42,4.61,65.17.19,9.45,2.54,14.21,11.52,17.29,11.42,3.91,12.49,3.91,15.41-8.12,0-.16,0-.33.08-.49C726.58,517,730.77,482,732,446.67c.45-13,.32-26,.1-39-.32-18.58-7.57-35.22-14.89-51.87-16.65-37.85-42.92-66-81.14-82.85-16.27-7.16-32.07-15.39-48-23.23a63.44,63.44,0,0,1-6.4-4.12l.55-1.6,28.93,4.48.51-1.23c-3.28-2.41-6.4-5.06-9.85-7.19-20-12.39-42.28-17.23-65.45-18.95-23.71-1.76-47.28-.24-70.73,3.1-19.15,2.73-38,6.93-55.34,15.86C391.57,249.69,377,263.47,372,284.4c-2.78,11.67-2.78,24-3.59,36.12-.25,3.66-1.42,5.34-4.72,7-11.54,5.83-23.38,11.34-34,18.54-15.79,10.67-26.83,25.53-30.71,44.52-1.85,9.06-2.28,18.49-2.52,27.77a555.16,555.16,0,0,0,4.77,85.21C304,525.45,308.38,546.85,317.31,567.11Z"/><path class="cls-1" d="M559.13,110.55,585,113.69l-9.22-28.8Z"/><path class="cls-1" d="M396.06,128.32c-12.86,3.3-25.51,7.44-38.51,11.33l8.19,22.59C376,158.43,386,154.86,395.86,151a25,25,0,0,0,7.2-4.33c3.64-3.17,6.16-7,4.15-12.23S400.76,127.12,396.06,128.32Z"/><path class="cls-1" d="M391,103.52c-1.73-4.41-5.74-6.78-11.59-5.14-11,3.07-21.71,7-32.88,10.62l7.08,19.62c10.94-4.49,21.64-8.48,32-13.26C391.25,112.73,392.79,108,391,103.52Z"/><path class="cls-1" d="M696.2,112.89c-7.57-3.72-15.54-6.64-23.37-9.85-3.92-1.6-7.89-3.07-12-4.65l-8.19,21c12.67,4.41,24.58,9,36.77,12.62,6.28,1.87,10.11-.81,12.25-6.39C703.66,120.46,702.12,115.8,696.2,112.89Z"/><path class="cls-1" d="M98.69,604.22c-2.42-6.5-8.51-8-14.45-4.87-4.72,2.49-5.8,6.94-5,11.55,2.2,12,4.86,24,7.41,36.39l21.87-4.92c-.85-4.16-1.47-8.06-2.47-11.86C103.78,621.7,101.86,612.72,98.69,604.22Z"/><path class="cls-1" d="M1006.94,429.09C962.23,197.89,755.69,23,507.73,29.18c-245,6.07-449.62,192.33-479.07,435.89C2.77,679.18,118.52,880.41,299.4,968.59c-.64-1.53-.93-2.3-1.28-3-11.51-24.49-17.93-50.43-20.74-77.17-3.38-32.09-.29-63.83,7.57-95.08,1.1-4.38.28-7.07-3.06-10.23C217.13,721.81,179.82,647,171,558.12a344.12,344.12,0,0,1,11.61-129C234.14,247.35,419.26,139,602.85,182.95c178.72,42.76,295,218.11,264.65,399Q848.71,694,768.44,774.31c-6.29,6.27-8,11.35-6,20,10.58,46,12.72,92.21-.11,138.28-2.79,10-5.81,20-8.73,30C923.11,875.34,1053.24,668.53,1006.94,429.09Zm-31.59,11.64c1.38,12.9,3.25,25.75,4.36,38.67a77.72,77.72,0,0,1-.5,18.83c-1.66,10.32-8.87,17.55-17.44,18.88-11.21,1.74-21.65-2.79-26.13-13-2.93-6.7-4.09-14.28-5.35-21.59-1.41-8.16-2-16.45-3-25.11-9.85,1.09-19,2-28,3.17-3.34.44-5.07-.23-5.19-3.92-.11-3.31-.69-6.61-1-9.92-.3-2.92,1.19-4.25,4-4.57,23.46-2.68,46.92-5.45,70.39-8C974.44,433.34,974.62,433.85,975.35,440.73ZM61.23,479c4-9.11,10.65-15.45,20.55-18.19,4.5-1.25,5.86.28,5.51,4.51a40.7,40.7,0,0,0-.15,5.49c.23,4.42-1.16,7.16-5.67,9.19-3.32,1.5-6.35,4.91-8.17,8.21-4.56,8.29-5.45,17.54-3.65,26.69C74,537.11,101.09,546.77,119,532.65a18.32,18.32,0,0,0,5.12-6c6.39-13.15,7.13-26.48.34-39.77-3.25-6.37-8.92-8.92-17.21-9.95,0,9.32-.23,18.12.07,26.91.23,6.75-4.31,5-8.1,5.37-4.71.43-5.16-2.13-5-5.81.73-13.47,1.39-26.94,1.91-40.41.12-3.11,1.41-4.08,4.3-3.93,12.8.67,25.61,1.17,38.4,2,1.21.08,3.15,2.27,3.27,3.61.68,7.49.26,7.88-8.65,11.86,10.17,14.63,10.41,30.84,6.9,47.36-4.55,21.38-18.86,32.83-39.3,33.46-26,.8-40-16.83-43.61-33.38C54.12,508.77,54.86,493.51,61.23,479ZM76.54,663.19c-3.37-16.94-7.47-33.73-10.68-50.69a43.4,43.4,0,0,1,.24-15.82c3.11-16.37,21-22.49,33.83-11.86.62.52,1.27,1,2.49,2,2.13-9,9.1-11.2,16.53-13.27,5.67-1.58,12.15-1.74,15.4-8.55,1.16-2.42,4.34-1.44,5.16,1.52,1.37,5,2.88,10,3.28,15,.13,1.68-2.6,4.41-4.62,5.27-5.18,2.19-10.7,3.55-16.05,5.34-6.68,2.24-8.4,4.88-8,11.9a22.94,22.94,0,0,0,.33,3.48c2.29,10.37,4.63,20.72,7.14,31.86,9-2,17.6-3.92,26.16-5.85,6-1.35,6.67-.94,8.11,5.14,2.69,11.36,2.71,11.43-8.47,14Q115.88,659.92,84.28,667C80.76,667.77,77.62,668.57,76.54,663.19Zm118.37,70.17a40,40,0,0,1-40.22,41.88c-12.91.24-22.67-3.82-30.76-11.7-13.34-13-21.49-28.75-23.38-47.26-1.68-16.38,4.82-29.34,19.13-37.73,15.45-9.06,31.45-9.26,46.05,1.09C184,692.56,193.94,711,194.92,733.35Zm-25.2-363.12c-3.46,12.64-3.42,13.81-16.34,14.31-11.3.43-16,5.22-17.79,15.58-1.18,6.65-3.83,13.05-6,19.51-.9,2.7-.46,4.54,1.79,6.47a151.14,151.14,0,0,1,13.07,12.35,8.86,8.86,0,0,1,1.85,6.38c-.43,3.41-1.84,6.7-3,10-.94,2.8-2.72,3.14-4.94,1.32-.9-.74-1.71-1.58-2.55-2.39C116.91,435.5,98,417.18,78.94,399c-2.83-2.69-3-5.16-2.34-8.83,1.61-9.65,6.21-13.68,16.52-14.79,24.28-2.6,48.37-7,71.2-10.41C170.2,364.72,171,365.72,169.71,370.24ZM214.93,296c-4.29,11.6-14,11.86-23.74,13.19-18.93,2.6-37.82,5.5-56.72,8.29a14.4,14.4,0,0,0-2.3,1l43.48,26.63c6.37,3.9,6.43,4.26,2.44,10.85-5.88,9.72-5.18,8.42-13.77,3.16L108.59,325c-5.75-3.52-5.06-3.77-2.71-9.76,4-10.26,12.11-12,21.56-13.15,20.12-2.41,40.15-5.48,61.19-8.41-1.76-1.24-2.84-2.1-4-2.82-13.6-8.36-27.15-16.8-40.85-25-3.91-2.33-5-4.42-2.36-8.65,7.63-12,5.75-10.18,16.2-3.88,18.37,11.08,36.6,22.38,54.88,33.6C217.67,290.11,217,290.5,214.93,296Zm22-24.93c-8.13,9.32-8.12,9.28-17.44,1.08q-23.78-20.93-47.6-41.82c-5.27-4.65-5.2-4.71-.7-9.83,8.68-9.86,6.54-9.67,16.49-1q24.58,21.53,49.08,43.17c1.2,1.06,2.22,2.32,3.62,3.79C239.11,268.24,238.13,269.73,237,271.06Zm64.87-64.87c-9.54,21.4-25.81,35-49.48,37.71-16.68,1.89-28.59-7.16-37.53-20.28s-9.07-27.11-2.11-40.75c8-15.73,21.2-26.3,37.7-32.45,3.81-1.42,8.13-1.46,14-2.43,4,1.28,9.49,2.47,14.45,4.85,4.75,2.28,4.61,4.4.68,7.77-1.27,1.08-2.7,2-3.84,3.19-3.29,3.42-6.43,3.4-11.07,1.84-4.33-1.45-10.29-1.53-14.31.37a55.14,55.14,0,0,0-17.57,12.66c-15,17-4.58,45,17.85,49.22,15.63,2.94,37.26-14.29,37.38-30,0-3.23-1.63-6.45-1.88-9.72a9.76,9.76,0,0,1,1.56-5.92c1.28-1.84,3.51-3,5.31-4.48,5.11-4.16,6.77-3.73,9.14,2.58C305.33,189,305.52,198,301.85,206.19Zm122.69-63.27c-3.43,9.19-10.48,15.21-19.08,18.73-16,6.54-32.29,12.22-48.49,18.2-3.69,1.36-4.92-1-6-4-6.52-18.3-13.15-36.57-19.74-54.84-1.58-4.37-3.26-8.71-4.71-13.13-.81-2.47-1.14-4.87,2.25-6,16.48-5.67,32.81-11.85,49.47-16.9,5.3-1.61,11.75-1.41,17.21-.1,13.46,3.21,17.4,16.58,9.22,30.13a73.71,73.71,0,0,1,8.61,1.74C423.61,120.06,428.65,131.89,424.54,142.92Zm185,10.67c-10.21.49-14-4.63-16.36-13.61-3.53-13.35-4-13.2-17.61-14.72-6.94-.78-13.86-1.81-20.82-2.3a6.65,6.65,0,0,0-5,2.32C546.05,130.39,543,136,539.21,141a8.27,8.27,0,0,1-6,2.82c-4.08-.15-8.11-1.53-12.2-2-1.82-.2-3.74.71-5.64.92-23.32,2.53-46.65,5-70,7.57-4.4.49-5.82-1.21-6.25-5.42q-3.61-35.25-7.7-70.44c-.48-4.1.69-5.84,4.73-6.26,23-2.38,46-4.91,69-7.26,5.86-.6,5.69-.36,6.67,8.42.52,4.63-2.12,4.61-5.36,5-18.51,2-37,4.1-56.22,6.26L452.47,100c4.43-.38,8.82-.68,13.18-1.15,13.06-1.43,26.13-2.86,39.17-4.44,3.62-.44,5.19.77,5.49,4.46.69,8.43.53,8.5-7.85,9.34-15.87,1.6-31.72,3.47-48.44,5.32l2.25,22.13c13.09-1.42,25.76-2.77,38.43-4.16,6.78-.74,13.56-1.5,20.33-2.34,3-.37,4.37.72,4.41,3.78a35.41,35.41,0,0,0,.9,5.1c1.39-1.93,2.37-3.21,3.26-4.54,14-20.88,28-41.71,41.84-62.71,2.68-4.07,5.25-5.74,10.45-5,11.72,1.67,11.78,1.29,15.68,12.81q11.57,34.22,23.11,68.44C616.77,153.33,616,153.28,609.56,153.59Zm94.85,11.47c-1.08,3-2.41,5.93-2.85,9-.37,2.58.39,5.33.6,8,.11,1.38.66,3.25,0,4a4.5,4.5,0,0,1-4,.94c-4.72-1.56-9.59-3.06-13.82-5.55-1.52-.9-2.3-4.73-1.87-6.92,1-5.35,3-10.53,4.53-15.79,2.16-7.3.94-11-6.09-14.12-10.58-4.75-21.45-8.86-32.78-13.48-3.36,8.52-6.57,16.63-9.75,24.75-2.52,6.41-3.11,6.74-9.47,4.2-12.06-4.8-10.92-2.79-6.48-14.4,7.82-20.48,16-40.84,23.79-61.32,1.61-4.22,3.67-5.25,7.89-3.55,14.63,5.91,29.51,11.22,44,17.5a69.93,69.93,0,0,1,16.57,10.79c6.5,5.44,7.85,13,5.44,21-2.29,7.6-7.45,12.42-15.37,14-.6.12-1.2.27-2.26.51C708.07,151.19,707,158.05,704.41,165.06Zm52,60.79a54.26,54.26,0,0,1-10.91-6c-11.28-8-22.33-16.25-33.57-24.28-3.28-2.35-3.67-4.43-1.2-7.79q21-28.55,41.67-57.34c2.63-3.66,4.86-4.65,8.86-1.58,11.09,8.5,22.66,16.38,33.69,25s18.23,19.31,18.24,33.87C814.14,209.35,788.35,238.74,756.38,225.84ZM854.77,330.2c-14.37-5-38-31.73-37-53.91a22.21,22.21,0,0,1,8.35-18.63c.87-.73,2.58-2,2.8-1.75a74.43,74.43,0,0,1,8.93,9.22c.93,1.24,1,4.55.08,5.53-6.22,6.44-5.82,13.45-2.33,20.74,4,8.35,9.12,15.88,17.06,21.06,3.69,2.4,7.44,3.76,11.46.52,3.81-3.07,3.7-6.89,2-10.82-4-9.29-8.44-18.42-12.31-27.78a76.35,76.35,0,0,1-5.09-16.06,18,18,0,0,1,14.65-21.08c6.3-1.14,12.78-.93,18.36,2.71,16.81,11,27.14,26.09,28.87,46.46.63,7.4-2.5,13.19-8,17.92-2.28,1.95-4.19,1.81-5.92-.5s-3.93-4.7-5-7.41c-.75-1.88-.8-4.94.27-6.47,3.38-4.85,4.53-9.89,1.75-15a139.47,139.47,0,0,0-11.09-17,12.24,12.24,0,0,0-7-4.46c-2.76-.48-6.54,0-8.56,1.67-1.55,1.28-1.9,5.26-1.29,7.65,1.14,4.46,3.29,8.67,5.16,12.93,3.2,7.3,6.8,14.44,9.66,21.87,1.52,3.95,2.12,8.32,2.69,12.56C885.1,323.6,870.13,335.58,854.77,330.2ZM869,369.43c-.65-13.22,5.42-23,16.93-28.18,15.56-7.05,31.71-12.82,47.72-18.84,1.26-.47,3.42,1.43,5.14,2.25.12.05.16.28.22.44,5.55,15.55,6.95,12.05-7.16,17.64-11.58,4.59-23.32,8.8-34.91,13.36-12.07,4.74-16.41,13.49-12.49,25.89a59.58,59.58,0,0,0,6.5,13.94c5.24,8.22,12.34,10.51,21.55,7.16,14.21-5.16,28.29-10.66,42.44-16,6-2.27,6.91-1.9,9.17,4.19,4.74,12.79,4.7,10.19-6.78,14.73q-16.45,6.51-33.12,12.47a66.18,66.18,0,0,1-13.52,3.29c-11.71,1.52-20.84-3.48-27.68-12.58A68.16,68.16,0,0,1,869,369.43ZM941.24,720c-3,9.66-10.29,12.48-19.71,13.29-10.73.93-21.35,3.18-32.71,5,5.1,13.06,9.75,25.5,14.87,37.74,1.73,4.14,1.82,7.51-.82,11.14-1.65,2.28-2.7,5-4.36,7.27-.86,1.18-2.53,2.6-3.69,2.49s-2.43-1.94-2.92-3.28c-6-16.38-11.73-32.86-17.88-49.18a15.23,15.23,0,0,0-5.69-6.86c-6.41-4.16-13.14-7.85-19.87-11.49-3.4-1.84-4-3.93-2-7.22,7.63-12.64,4.88-12.9,18.09-5.29,3,1.74,6.26,3.22,9,5.29,5.48,4.08,11.15,4.62,17.77,3.17,14.93-3.27,30-6,45-8.66,2.06-.37,4.33.48,6.51.76C942.34,716.12,941.85,718.09,941.24,720Zm24.28-68.6c-5.31,15.44-2.69,14-16.65,9.24-17.72-6-35.39-12.25-53.43-18.51-4.87,14.11-9.62,27.91-14.38,41.71-2.38,6.89-7.52,8.52-12.95,3.66-1.12-1-1.27-4.1-.67-5.82,5.57-16,11.42-31.9,17.13-47.85a60.66,60.66,0,0,0,2.59-8.56c.7-3.53,2.22-5,5.88-3.7q34.81,12.14,69.68,24.14C965.92,646.85,966.48,648.64,965.52,651.43Zm17.06-103.15c-2.37,16.27-4.07,32.65-6.3,48.94a31.24,31.24,0,0,1-3.23,9.36c-5.57,11.21-14.92,15.84-26.66,13.48-9.35-1.88-18.17-12.35-18.06-23.1.11-10.94,1.49-21.86,2.35-32.79.25-3.12.63-6.24,1-9.62-9.49-1.15-18.69-2.43-27.93-3.28-3.58-.33-4.72-1.79-4.18-5.09,2.27-13.77-1.65-14.39,14.7-12.28,20.94,2.7,41.93,5,62.91,7.29C981.71,541.69,983.3,543.31,982.58,548.28Z"/><path class="cls-1" d="M138.93,690.83c-11.6,2.92-20.16,9.47-22.63,21.92-2.93,14.84,8,35.45,22.24,42.44a24.38,24.38,0,0,0,18.38,1.7c13.89-4.08,23.33-15,23.28-29.19-1.11-9.48-5.58-19.57-12.85-28.31C159.88,690.38,149.95,688.05,138.93,690.83Z"/><path class="cls-1" d="M763.52,146.84l-33.19,45.63c8.84,6.1,16.93,12.22,25.56,17.48s17.9,4.88,25.57-1.73a56.44,56.44,0,0,0,12.1-15.44c4.75-8.64,3.27-17.64-3.7-24.32C781.77,160.72,772.57,154.17,763.52,146.84Z"/><path class="cls-1" d="M947.47,493.81c2.26,4.87,6.65,6.24,11.76,4.48s7.83-5.9,7.37-13.28c-.65-10.43-2.06-20.82-3.21-31.89l-22.68,2.71c1,8.92,1.63,17.36,2.92,25.71A46.5,46.5,0,0,0,947.47,493.81Z"/><path class="cls-1" d="M943.68,568c-.61,7.76-1.62,15.56-1.33,23.3.27,7.1,3.77,10.17,9.63,10.68,5,.43,9.37-2.68,10.87-9.05,1.63-6.93,2.36-14.07,3.35-21.14.6-4.3,1-8.63,1.44-13l-22.41-2.63C944.65,560.47,944,564.23,943.68,568Z"/><path class="cls-1" d="M118,413.5l7.72-24.95-30.13,4Z"/></svg>